<svg id="visual" viewBox="0 0 900 600" width="900" height="600" xmlns="http://www.w3.org/2000/svg" xmlns:xlink="http://www.w3.org/1999/xlink" version="1.1"><rect x="0" y="0" width="900" height="600" fill="#ffffff"></rect><g fill="#2c226d"><circle r="72" cx="445" cy="559"></circle><circle r="32" cx="58" cy="417"></circle><circle r="54" cx="651" cy="516"></circle><circle r="52" cx="443" cy="371"></circle><circle r="50" cx="567" cy="145"></circle><circle r="62" cx="821" cy="512"></circle><circle r="35" cx="764" cy="20"></circle><circle r="44" cx="98" cy="195"></circle><circle r="34" cx="822" cy="266"></circle><circle r="53" cx="324" cy="64"></circle><circle r="41" cx="147" cy="596"></circle><circle r="54" cx="231" cy="418"></circle><circle r="36" cx="73" cy="20"></circle><circle r="34" cx="337" cy="210"></circle><circle r="66" cx="483" cy="5"></circle><circle r="58" cx="669" cy="324"></circle><circle r="40" cx="6" cy="572"></circle><circle r="49" cx="881" cy="122"></circle><circle r="47" cx="295" cy="581"></circle></g></svg>