<svg id="visual" viewBox="0 0 900 600" width="900" height="600" xmlns="http://www.w3.org/2000/svg" xmlns:xlink="http://www.w3.org/1999/xlink" version="1.1"><rect x="0" y="0" width="900" height="600" fill="#00171F"></rect><defs><linearGradient id="grad1_0" x1="33.3%" y1="0%" x2="100%" y2="100%"><stop offset="20%" stop-color="#00171f" stop-opacity="1"></stop><stop offset="80%" stop-color="#00171f" stop-opacity="1"></stop></linearGradient></defs><defs><linearGradient id="grad2_0" x1="0%" y1="0%" x2="66.7%" y2="100%"><stop offset="20%" stop-color="#00171f" stop-opacity="1"></stop><stop offset="80%" stop-color="#00171f" stop-opacity="1"></stop></linearGradient></defs><g transform="translate(900, 0)"><path d="M0 405.6C-17.6 390.8 -35.2 376 -53.1 369.2C-71 362.4 -89.2 363.7 -105.1 357.9C-121 352.1 -134.6 339.1 -153.7 336.6C-172.8 334 -197.2 341.9 -218.4 339.9C-239.6 337.8 -257.5 325.7 -265.6 306.6C-273.8 287.4 -272.3 261 -283.4 245.6C-294.5 230.1 -318.2 225.6 -330.6 212.5C-343 199.4 -344 177.7 -346.6 158.3C-349.1 138.8 -353.2 121.5 -355 104.2C-356.8 87 -356.2 69.7 -364.3 52.4C-372.3 35 -389 17.5 -405.6 0L0 0Z" fill="#003459"></path></g><g transform="translate(0, 600)"><path d="M0 -405.6C17.5 -392.3 35.1 -379 53.9 -375.1C72.8 -371.3 92.9 -376.9 108.5 -369.4C124 -361.9 134.9 -341.5 153.3 -335.7C171.6 -329.9 197.4 -338.7 213 -331.5C228.6 -324.2 234.1 -300.7 250.2 -288.7C266.2 -276.7 292.8 -276 300.8 -260.6C308.8 -245.2 298.2 -215 309.6 -199C321 -182.9 354.4 -180.9 367.5 -167.8C380.6 -154.7 373.5 -130.5 377.1 -110.7C380.7 -90.9 395 -75.5 401.5 -57.7C408 -40 406.8 -20 405.6 0L0 0Z" fill="#003459"></path></g></svg>