<svg id="visual" viewBox="0 0 900 600" width="900" height="600" xmlns="http://www.w3.org/2000/svg" xmlns:xlink="http://www.w3.org/1999/xlink" version="1.1"><rect x="0" y="0" width="900" height="600" fill="#00171f"></rect><path d="M0 447L9.3 430C18.7 413 37.3 379 56.2 343.2C75 307.3 94 269.7 112.8 279.3C131.7 289 150.3 346 169 330.8C187.7 315.7 206.3 228.3 225 239.2C243.7 250 262.3 359 281.2 404.2C300 449.3 319 430.7 337.8 417C356.7 403.3 375.3 394.7 394 355C412.7 315.3 431.3 244.7 450 243.2C468.7 241.7 487.3 309.3 506.2 305.8C525 302.3 544 227.7 562.8 192.3C581.7 157 600.3 161 619 196C637.7 231 656.3 297 675 344.2C693.7 391.3 712.3 419.7 731.2 408.2C750 396.7 769 345.3 787.8 314.2C806.7 283 825.3 272 844 285.5C862.7 299 881.3 337 890.7 356L900 375L900 0L890.7 0C881.3 0 862.7 0 844 0C825.3 0 806.7 0 787.8 0C769 0 750 0 731.2 0C712.3 0 693.7 0 675 0C656.3 0 637.7 0 619 0C600.3 0 581.7 0 562.8 0C544 0 525 0 506.2 0C487.3 0 468.7 0 450 0C431.3 0 412.7 0 394 0C375.3 0 356.7 0 337.8 0C319 0 300 0 281.2 0C262.3 0 243.7 0 225 0C206.3 0 187.7 0 169 0C150.3 0 131.7 0 112.8 0C94 0 75 0 56.2 0C37.3 0 18.7 0 9.3 0L0 0Z" fill="#003459" stroke-linecap="round" stroke-linejoin="miter"></path></svg>